<svg width="150" height="172" viewBox="0 0 150 172" fill="none" xmlns="http://www.w3.org/2000/svg">
<path d="M45.4932 48.1423C47.7643 28.7029 61.8067 10.6796 80.2152 4.27568C86.7834 1.99353 94.8741 -0.459311 103.997 1.53836C119.171 4.8636 144.003 17.8485 148.634 56.5628C127.394 23.5254 89.8914 30.9218 79.7119 48.6417C75.9308 47.017 62.1338 43.5969 58.0444 44.0837C53.9613 44.5705 49.4379 46.9475 45.4932 48.136V48.1423Z" fill="#732216"/>
<path d="M13.3066 73.6696C13.5268 83.1206 14.9297 92.54 17.4778 101.637C17.8175 102.844 18.2327 104.14 19.2456 104.88C20.4473 105.765 22.2214 105.556 23.4042 104.652C24.587 103.742 25.2287 102.269 25.4489 100.79C25.6691 99.3106 25.4992 97.806 25.3357 96.3204C24.2787 86.7745 23.2218 77.235 22.1585 67.6892C24.2598 77.7344 30.6204 86.528 36.6664 94.8032C37.5158 95.9664 38.5601 97.2434 39.9946 97.3192C41.5926 97.4014 42.876 95.8779 43.2283 94.3101C43.7128 92.1291 42.9012 89.8785 41.9575 87.8492C40.1581 83.9803 37.824 80.3833 35.987 76.5333C34.1436 72.6834 32.7847 68.4604 33.1244 64.2059C35.1188 71.1219 40.2211 76.6281 45.3234 81.6919C46.4873 82.8487 47.8839 84.0815 49.5197 83.9361C50.9793 83.8033 52.1558 82.5074 52.4704 81.0723C52.7786 79.6373 52.3508 78.1201 51.6273 76.8431C50.9038 75.5661 49.8972 74.4787 48.9409 73.3598C46.5061 70.5213 44.3167 67.4047 42.9389 63.9214C41.5611 60.4318 41.0326 56.5376 41.926 52.8963C35.729 51.4739 29.1608 53.8572 24.3668 58.0548C19.5728 62.2525 13.1556 67.2972 13.3066 73.6822V73.6696Z" fill="#732216"/>
<path d="M84.3105 30.6625C85.0215 36.5291 82.939 42.3894 80.2337 47.6364C77.5347 52.8898 74.1814 57.8208 72.0361 63.3207C68.2424 73.0562 68.4752 83.8158 67.7957 94.2467C67.6069 97.161 67.0533 100.543 64.5053 101.953C62.4984 103.066 59.856 102.427 58.1321 100.903C56.4146 99.3799 55.4772 97.142 54.9361 94.9041C52.1302 83.3164 59.1451 70.8436 53.9484 60.1219C51.5136 55.0961 44.8511 53.2754 39.5286 54.8938C34.2061 56.5121 30.0726 60.754 26.8011 65.2741C19.5849 75.2309 14.2498 86.0853 10.4184 97.7805C9.94024 99.2472 9.28594 101.719 8.36111 102.952C7.43628 104.184 5.51112 104.994 3.97602 104.892C2.14523 104.766 0.459147 103.42 0.0439168 101.043C-0.339857 98.8363 1.81808 80.225 5.47966 70.0344C8.69455 61.0828 13.2118 50.9364 18.4399 43.0026C46.2477 0.798577 86.8145 -3.14619 103.99 1.53822C97.8055 2.52442 92.2754 7.06975 88.5069 12.1019C84.7384 17.134 83.5493 24.4103 84.3105 30.6625Z" fill="#E85642"/>
<g style="mix-blend-mode:soft-light" opacity="0.7">
<path d="M79.6869 9.4785C79.5422 8.51127 78.7118 7.65784 77.6863 7.70209C68.0353 8.10036 58.5605 10.9451 50.2307 15.8508C46.1099 18.2784 42.2533 21.2243 38.8371 24.5748C37.1699 26.2122 35.6033 27.9506 34.15 29.7903C32.4702 31.9207 30.7023 34.1902 30.2871 36.9465C30.2556 37.1488 30.2493 37.3511 30.2368 37.5597C29.9537 39.9556 30.5639 42.516 32.3758 44.1912C36.1381 47.6745 41.7751 46.2458 45.2417 43.1418C47.1102 41.4665 48.5321 39.3298 49.9476 37.2752C51.3506 35.2459 52.785 33.2356 54.3013 31.2885C57.3652 27.3374 60.7059 23.576 64.4492 20.2634C68.5135 16.6663 73.1376 13.6319 78.2273 11.7227C79.1773 11.3687 79.8505 10.5342 79.6869 9.47218V9.4785Z" fill="white"/>
</g>
<path d="M103.745 123.871C101.474 143.31 87.4314 161.333 69.0229 167.737C62.4547 170.019 54.364 172.472 45.2415 170.474C30.0667 167.149 5.2347 154.164 0.604248 115.45C21.8439 148.487 59.3468 141.091 69.5262 123.371C73.3073 124.996 87.1043 128.416 91.1937 127.929C95.2768 127.442 99.8003 125.065 103.745 123.877V123.871Z" fill="#11352C"/>
<path d="M135.925 98.3433C135.705 88.8922 134.302 79.4728 131.754 70.3758C131.414 69.1684 130.999 67.8724 129.986 67.1328C128.785 66.2477 127.01 66.4564 125.828 67.3604C124.645 68.2707 124.003 69.7437 123.783 71.223C123.569 72.7022 123.733 74.2068 123.896 75.6924C124.953 85.2383 126.01 94.7778 127.073 104.324C124.972 94.2784 118.611 85.4848 112.565 77.2096C111.716 76.0464 110.672 74.7695 109.237 74.6936C107.639 74.6114 106.356 76.135 106.003 77.7027C105.519 79.8837 106.331 82.1343 107.274 84.1636C109.074 88.0325 111.408 91.6296 113.245 95.4795C115.088 99.3294 116.447 103.552 116.107 107.807C114.113 100.891 109.011 95.3847 103.908 90.3209C102.745 89.1641 101.348 87.9313 99.7121 88.0767C98.2525 88.2095 97.076 89.5055 96.7615 90.9405C96.4532 92.3755 96.881 93.8927 97.6045 95.1697C98.328 96.4467 99.3346 97.5341 100.291 98.653C102.726 101.491 104.915 104.608 106.293 108.091C107.671 111.581 108.199 115.475 107.306 119.117C113.503 120.539 120.071 118.156 124.865 113.958C129.659 109.76 136.076 104.716 135.925 98.3306V98.3433Z" fill="#11352C"/>
<path d="M64.9273 141.35C64.2163 135.483 66.2988 129.623 69.0041 124.376C71.7031 119.123 75.0564 114.192 77.2017 108.692C80.9954 98.9564 80.7626 88.1968 81.4421 77.7659C81.6309 74.8516 82.1845 71.4694 84.7325 70.0597C86.7395 68.9471 89.3818 69.5856 91.1057 71.1091C92.8232 72.6327 93.7606 74.8706 94.3017 77.1085C97.1076 88.6962 90.0928 101.169 95.2894 111.891C97.7242 116.916 104.387 118.737 109.709 117.119C115.032 115.5 119.165 111.259 122.437 106.738C129.653 96.7817 134.988 85.9273 138.819 74.2321C139.298 72.7654 139.952 70.2936 140.877 69.0609C141.802 67.8281 143.727 67.0189 145.262 67.1201C147.093 67.2465 148.779 68.5931 149.194 70.97C149.578 73.1763 147.42 91.7875 143.758 101.978C140.543 110.93 136.026 121.076 130.798 129.01C102.996 171.201 62.4359 175.146 45.2542 170.462C51.4386 169.476 56.9687 164.93 60.7372 159.898C64.5057 154.866 65.6948 147.59 64.9336 141.337L64.9273 141.35Z" fill="#28CEB0"/>
<g style="mix-blend-mode:soft-light" opacity="0.7">
<path d="M69.5514 162.534C69.6961 163.501 70.5266 164.355 71.552 164.311C81.203 163.912 90.6778 161.068 99.0076 156.162C103.128 153.734 106.985 150.788 110.401 147.438C112.068 145.801 113.635 144.062 115.088 142.222C116.768 140.092 118.536 137.823 118.951 135.066C118.983 134.864 118.989 134.662 119.002 134.453C119.285 132.057 118.674 129.497 116.862 127.822C113.1 124.338 107.463 125.767 103.997 128.871C102.128 130.546 100.706 132.683 99.2907 134.738C97.8877 136.767 96.4533 138.777 94.9371 140.724C91.8732 144.675 88.5325 148.437 84.7891 151.749C80.7249 155.346 76.1007 158.381 71.011 160.29C70.061 160.644 69.3878 161.479 69.5514 162.541V162.534Z" fill="white"/>
</g>
</svg>
