<svg width="350" height="82" viewBox="0 0 350 82" fill="none" xmlns="http://www.w3.org/2000/svg">
<path d="M83.3306 54.0238C86.7857 52.3034 89.2733 50.5141 91.374 49.1378C93.5299 47.7064 95.2436 46.2199 96.515 44.6784C97.7865 43.0819 98.671 41.4853 99.1685 39.8888C99.666 38.2372 99.9148 36.6131 99.9148 35.0165C99.9148 31.6582 99.1408 28.5752 97.593 25.7675C96.0451 22.9597 94.0274 20.675 91.5398 18.9133H82.5015V14.7017H85.3208L82.8331 13.1326L87.3109 10.4075C88.7481 11.0131 90.2131 11.6737 91.7056 12.3894C93.1982 13.1051 94.7184 13.8759 96.2663 14.7017H140.297V18.9133H133.912V67.801L120.562 59.2952V52.6062C118.074 49.2479 115.67 47.1834 113.348 46.4126C111.579 52.7989 107.599 58.084 101.407 62.2681L83.3306 54.0238ZM120.562 18.9133H103.149C104.807 20.0694 106.272 21.4182 107.543 22.9597C108.87 24.5012 109.976 26.1253 110.86 27.832C111.8 29.4836 112.519 31.1903 113.016 32.952C113.569 34.7137 113.901 36.4204 114.011 38.072C115.946 38.5675 118.13 39.4483 120.562 40.7146V18.9133Z" fill="white"/>
<path d="M185.634 64.9933L175.933 73.4991L137.789 55.4965L144.423 41.8707C147.076 43.3021 149.564 44.2931 151.886 44.8436C154.263 45.3391 156.419 45.5868 158.354 45.5868C160.233 45.5868 161.974 45.3666 163.578 44.9262C165.181 44.4858 166.535 43.8802 167.641 43.1094C168.802 42.3387 169.686 41.4303 170.294 40.3842C170.958 39.3382 171.289 38.2096 171.289 36.9984C171.289 35.1817 170.377 33.3098 168.553 31.383C168.055 30.8875 167.447 30.4746 166.729 30.1442C166.065 29.8139 165.429 29.5662 164.821 29.401C164.213 29.2359 163.688 29.1258 163.246 29.0707C162.859 28.9606 162.665 28.9055 162.665 28.9055L162.002 29.6488C162.776 30.7498 163.163 31.8234 163.163 32.8694C163.163 33.9705 162.859 34.989 162.251 35.9249C161.698 36.8608 160.952 37.6866 160.012 38.4023C159.128 39.063 158.132 39.586 157.027 39.9713C155.921 40.3567 154.843 40.5494 153.793 40.5494C151.25 40.5494 149.039 39.8888 147.159 38.5675C145.28 37.2462 144.174 35.1817 143.843 32.3739C143.898 31.7683 144.119 31.2178 144.506 30.7223C144.948 30.1718 145.418 29.5387 145.916 28.823C146.413 28.0522 146.911 27.0888 147.408 25.9326C147.906 24.7215 148.293 23.1524 148.569 21.2255H163.743C164.96 21.2255 166.314 21.4733 167.807 21.9688C169.299 22.4092 170.764 22.9873 172.201 23.703C173.639 24.4187 174.965 25.2169 176.182 26.0978C177.398 26.9236 178.337 27.6944 179.001 28.4101C180.438 30.0066 181.461 31.6582 182.069 33.3649C182.732 35.0716 183.064 36.7782 183.064 38.4849C183.064 40.5219 182.649 42.5038 181.82 44.4307C180.991 46.3025 179.802 48.0367 178.255 49.6333C176.762 51.1748 174.91 52.4961 172.699 53.5971C170.488 54.6982 168 55.4414 165.236 55.8268L166.894 56.7352L185.634 64.9933ZM136.96 18.9133V14.7017H187.873V18.9133H136.96Z" fill="white"/>
<path d="M204.52 68.1313L190.921 59.3778V25.272C190.147 23.235 189.207 21.666 188.101 20.5649C186.996 19.4638 185.807 18.9133 184.536 18.9133V14.7017H186.028C187.3 14.7017 188.931 15.087 190.921 15.8578V12.9675L204.52 10.4901V14.7017H210.904V18.9133H204.52V68.1313Z" fill="white"/>
<path d="M246.382 52.7713V18.9133H231.622C234.994 21.5559 237.675 24.3361 239.666 27.2539C241.711 30.1718 242.734 33.3649 242.734 36.8333L242.817 36.9984L236.763 40.5494C235.437 41.3202 234.055 42.0909 232.617 42.8617C231.235 43.5774 229.909 44.3756 228.637 45.2565C231.291 46.0273 234.193 47.0458 237.344 48.312C240.495 49.5232 243.508 51.0096 246.382 52.7713ZM234.276 52.6888C234.331 52.6337 234.58 52.6062 235.022 52.6062C235.63 52.6062 236.211 52.7989 236.763 53.1842C237.316 53.5696 237.786 54.0651 238.173 54.6707C238.615 55.2212 238.947 55.8819 239.168 56.6526C239.444 57.4234 239.583 58.1666 239.583 58.8823C239.583 60.3137 239.002 61.5524 237.841 62.5984C236.68 63.5894 235.133 64.0849 233.198 64.0849C232.203 64.0849 231.318 63.8922 230.544 63.5068C229.77 63.1214 229.107 62.6535 228.554 62.103C228.057 61.5524 227.67 60.9468 227.393 60.2862C227.117 59.6255 226.979 58.9924 226.979 58.3868C226.979 57.7262 227.062 57.1206 227.227 56.57C227.449 55.9645 227.67 55.4139 227.891 54.9184C228.167 54.423 228.416 54.0101 228.637 53.6797C228.858 53.3494 228.969 53.1292 228.969 53.0191L229.135 52.8539C229.245 52.8539 229.494 52.909 229.881 53.0191C230.323 53.0741 230.876 53.1017 231.539 53.1017C231.926 53.1017 232.341 53.0741 232.783 53.0191C233.281 52.964 233.778 52.8539 234.276 52.6888ZM229.549 28.9881C227.559 24.9141 224.933 21.5559 221.672 18.9133H207.575V14.7017H214.872C214.264 14.4264 213.629 14.1511 212.965 13.8759C212.357 13.5455 211.694 13.2427 210.975 12.9675L214.375 9.49908C217.913 10.9305 221.478 12.6647 225.072 14.7017H265.868V18.9133H259.484V68.2139L256.747 65.9842C251.44 61.8552 246.106 58.8823 240.744 57.0655C240.301 55.0836 239.527 53.6247 238.422 52.6888C237.371 51.7528 236.211 51.2849 234.939 51.2849C234.386 51.2849 233.806 51.3675 233.198 51.5326C232.645 51.6427 232.12 51.6978 231.622 51.6978C230.738 51.6978 230.24 51.6703 230.13 51.6152L228.637 51.2023L228.057 51.863C228.057 51.918 227.946 52.0832 227.725 52.3584C227.504 52.6337 227.255 52.9916 226.979 53.432C225.763 53.2118 224.519 52.9916 223.247 52.7713C221.976 52.5511 220.649 52.3309 219.267 52.1107L212.302 38.8152C212.357 38.8152 212.385 38.7877 212.385 38.7326H212.468C212.799 38.5124 213.49 38.072 214.541 37.4113C215.591 36.7507 216.89 35.9799 218.438 35.0991C220.041 34.1632 221.782 33.1722 223.662 32.1262C225.597 31.0251 227.559 29.9791 229.549 28.9881Z" fill="white"/>
<path d="M326.452 14.7017V18.9133H262.52V14.7017H326.452ZM320.564 48.312C319.514 50.6242 318.464 52.4135 317.413 53.6797L315.838 55.5791C313.682 57.9464 310.835 59.8457 307.297 61.2771C303.759 62.7085 299.751 63.4242 295.273 63.4242C292.067 63.4242 289.11 63.0664 286.401 62.3507C283.747 61.5799 281.315 60.644 279.104 59.543C276.893 58.4419 274.93 57.2582 273.217 55.992C271.558 54.7257 270.149 53.5421 268.988 52.441C267.827 51.3399 266.942 50.4316 266.334 49.7159C265.781 49.0002 265.505 48.6698 265.505 48.7249L275.373 24.7765C276.312 29.4561 277.501 33.3924 278.938 36.5855C280.431 39.7787 282.089 42.3662 283.913 44.3481C285.738 46.3301 287.7 47.7615 289.801 48.6423C291.901 49.4681 294.03 49.881 296.186 49.881C298.286 49.881 300.221 49.5782 301.99 48.9726C303.759 48.312 305.279 47.4862 306.551 46.4952C307.822 45.4492 308.789 44.2931 309.453 43.0268C310.171 41.7055 310.531 40.4118 310.531 39.1455C310.531 37.0535 310.089 35.3744 309.204 34.1081C308.32 32.8419 307.325 31.8784 306.219 31.2178C305.169 30.5572 304.174 30.1442 303.234 29.9791C302.294 29.7589 301.797 29.6488 301.741 29.6488C301.741 29.6488 301.935 29.8415 302.322 30.2268C302.764 30.6122 303.206 31.1627 303.648 31.8784C304.091 32.5391 304.505 33.3374 304.892 34.2733C305.279 35.2092 305.473 36.2002 305.473 37.2462C305.473 38.072 305.252 39.0079 304.809 40.0539C304.367 41.0999 303.731 42.0634 302.902 42.9442C302.128 43.8251 301.161 44.5683 300 45.1739C298.839 45.7795 297.54 46.0823 296.103 46.0823C294.721 46.0823 293.394 45.8346 292.122 45.3391C290.851 44.8436 289.718 44.183 288.723 43.3571C287.728 42.5313 286.926 41.5954 286.318 40.5494C285.71 39.5034 285.406 38.4298 285.406 37.3288C285.406 36.8333 285.434 36.3653 285.489 35.9249C285.599 35.4845 285.793 34.989 286.069 34.4384C287.507 31.4655 288.419 29.1258 288.806 27.4191C289.248 25.6574 289.469 24.3085 289.469 23.3726C289.469 22.767 289.414 22.3541 289.303 22.1339C289.248 21.9137 289.22 21.7761 289.22 21.721H308.043C312.742 24.1984 316.197 27.1713 318.408 30.6397C320.619 34.1081 321.725 37.8242 321.725 41.7881C321.725 43.715 321.338 45.8896 320.564 48.312Z" fill="white"/>
<path d="M343.117 68.1313L329.518 59.3778V25.272C328.744 23.235 327.804 21.666 326.698 20.5649C325.593 19.4638 324.404 18.9133 323.133 18.9133V14.7017H324.625C325.897 14.7017 327.528 15.087 329.518 15.8578V12.9675L343.117 10.4901V14.7017H349.501V18.9133H343.117V68.1313Z" fill="white"/>
<path d="M21.8389 23.1686C22.9043 14.0145 29.4914 5.52715 38.1267 2.5115C41.2077 1.43682 45.003 0.281757 49.2823 1.22247C56.4006 2.78835 68.0491 8.90302 70.2212 27.1339C60.2579 11.5763 42.6656 15.0594 37.8906 23.4038C36.1169 22.6387 29.6448 21.0282 27.7266 21.2574C25.8112 21.4866 23.6893 22.6059 21.8389 23.1656V23.1686Z" fill="#732216"/>
<path d="M6.74036 35.1895C6.84366 39.6401 7.50178 44.0758 8.69702 48.3596C8.85639 48.9282 9.05117 49.5385 9.52632 49.8868C10.09 50.3036 10.9222 50.2053 11.4771 49.7796C12.0319 49.3509 12.3329 48.6573 12.4362 47.9607C12.5395 47.2641 12.4598 46.5556 12.3831 45.856C11.8873 41.3608 11.3915 36.8686 10.8927 32.3733C11.8784 37.1037 14.8621 41.2447 17.6982 45.1415C18.0967 45.6893 18.5866 46.2906 19.2594 46.3263C20.0091 46.365 20.6111 45.6476 20.7764 44.9093C21.0036 43.8823 20.6229 42.8225 20.1802 41.8669C19.3362 40.045 18.2413 38.3511 17.3795 36.5381C16.5148 34.7251 15.8773 32.7365 16.0367 30.733C16.9722 33.9898 19.3657 36.5828 21.7591 38.9673C22.3051 39.5121 22.9603 40.0926 23.7276 40.0241C24.4123 39.9616 24.9641 39.3513 25.1117 38.6756C25.2563 37.9998 25.0556 37.2853 24.7162 36.684C24.3769 36.0826 23.9047 35.5706 23.4561 35.0437C22.314 33.707 21.2869 32.2394 20.6406 30.5991C19.9943 28.9558 19.7464 27.122 20.1655 25.4073C17.2585 24.7375 14.1774 25.8598 11.9286 27.8365C9.67978 29.8132 6.66953 32.1888 6.74036 35.1955V35.1895Z" fill="#732216"/>
<path d="M40.0477 14.9372C40.3811 17.6999 39.4043 20.4595 38.1353 22.9304C36.8692 25.4042 35.2962 27.7263 34.2898 30.3162C32.5102 34.9007 32.6194 39.9675 32.3007 44.8795C32.2122 46.2519 31.9525 47.8445 30.7572 48.5084C29.8158 49.0323 28.5763 48.7317 27.7676 48.0142C26.9619 47.2968 26.5222 46.2429 26.2684 45.1891C24.9522 39.7323 28.2428 33.8588 25.8051 28.8099C24.6629 26.4432 21.5376 25.5858 19.0409 26.3479C16.5441 27.11 14.6052 29.1076 13.0706 31.2361C9.6855 35.9248 7.18287 41.0362 5.38558 46.5436C5.16128 47.2342 4.85436 48.3982 4.42053 48.9787C3.9867 49.5592 3.08362 49.9403 2.36353 49.8927C1.50472 49.8331 0.713795 49.199 0.519014 48.0797C0.33899 47.0407 1.35126 38.2766 3.06887 33.4777C4.57694 29.2624 6.69592 24.4843 9.14838 20.7483C22.1928 0.874102 41.2222 -0.983517 49.2791 1.22241C46.378 1.68681 43.7839 3.82724 42.0161 6.1969C40.2483 8.56656 39.6906 11.993 40.0477 14.9372Z" fill="#E85642"/>
<g style="mix-blend-mode:soft-light" opacity="0.7">
<path d="M37.8787 4.96151C37.8109 4.50603 37.4213 4.10414 36.9402 4.12498C32.4131 4.31253 27.9685 5.65216 24.0611 7.96228C22.1281 9.10543 20.319 10.4927 18.7165 12.0705C17.9344 12.8415 17.1995 13.6602 16.5178 14.5265C15.7298 15.5297 14.9005 16.5984 14.7057 17.8964C14.691 17.9916 14.688 18.0869 14.6821 18.1851C14.5493 19.3134 14.8356 20.5191 15.6856 21.308C17.4504 22.9483 20.0947 22.2755 21.7208 20.8138C22.5973 20.0249 23.2643 19.0187 23.9283 18.0512C24.5864 17.0956 25.2593 16.1489 25.9706 15.232C27.4078 13.3714 28.9749 11.6001 30.7309 10.0402C32.6374 8.34631 34.8065 6.91737 37.194 6.01833C37.6397 5.85162 37.9555 5.45866 37.8787 4.95853V4.96151Z" fill="white"/>
</g>
<path d="M49.1642 58.8296C48.0988 67.9837 41.5117 76.471 32.8764 79.4867C29.7953 80.5613 26 81.7164 21.7208 80.7757C14.6024 79.2098 2.95396 73.0951 0.78186 54.8643C10.7452 70.4218 28.3374 66.9388 33.1125 58.5944C34.8862 59.3595 41.3582 60.97 43.2765 60.7408C45.1918 60.5115 47.3138 59.3922 49.1642 58.8325V58.8296Z" fill="#11352C"/>
<path d="M64.2597 46.8086C64.1564 42.358 63.4983 37.9224 62.303 33.6385C62.1437 33.0699 61.9489 32.4597 61.4737 32.1114C60.9101 31.6946 60.0778 31.7928 59.523 32.2185C58.9682 32.6472 58.6671 33.3408 58.5638 34.0374C58.4635 34.7341 58.5402 35.4426 58.617 36.1422C59.1128 40.6374 59.6086 45.1296 60.1073 49.6248C59.1216 44.8944 56.1379 40.7535 53.3018 36.8566C52.9034 36.3089 52.4135 35.7075 51.7406 35.6718C50.991 35.6331 50.389 36.3505 50.2237 37.0888C49.9964 38.1159 50.3772 39.1757 50.8198 40.1313C51.6639 41.9532 52.7588 43.6471 53.6205 45.46C54.4853 47.273 55.1227 49.2616 54.9633 51.2651C54.0278 48.0083 51.6344 45.4154 49.2409 43.0308C48.695 42.486 48.0398 41.9055 47.2725 41.974C46.5878 42.0365 46.0359 42.6468 45.8883 43.3226C45.7437 43.9983 45.9444 44.7128 46.2838 45.3142C46.6232 45.9155 47.0954 46.4275 47.544 46.9545C48.6861 48.2911 49.7131 49.7588 50.3594 51.3991C51.0058 53.0423 51.2537 54.8761 50.8346 56.5909C53.7415 57.2607 56.8226 56.1384 59.0715 54.1617C61.3203 52.185 64.3305 49.8094 64.2597 46.8026V46.8086Z" fill="#11352C"/>
<path d="M30.9552 67.0608C30.6217 64.2982 31.5985 61.5386 32.8675 59.0677C34.1336 56.5938 35.7066 54.2718 36.713 51.6819C38.4926 47.0973 38.3834 42.0306 38.7021 37.1186C38.7906 35.7462 39.0504 34.1535 40.2456 33.4897C41.187 32.9657 42.4265 33.2664 43.2352 33.9838C44.0409 34.7013 44.4806 35.7551 44.7344 36.809C46.0506 42.2657 42.76 48.1393 45.1977 53.1882C46.3399 55.5549 49.4652 56.4122 51.9619 55.6501C54.4587 54.888 56.3976 52.8905 57.9323 50.762C61.3173 46.0733 63.8199 40.9618 65.6172 35.4545C65.8415 34.7638 66.1485 33.5998 66.5823 33.0193C67.0161 32.4388 67.9192 32.0578 68.6393 32.1054C69.4981 32.1649 70.289 32.799 70.4838 33.9184C70.6638 34.9573 69.6516 43.7215 67.9339 48.5203C66.4259 52.7357 64.3069 57.5137 61.8544 61.2498C48.813 81.118 29.7865 82.9756 21.7267 80.7697C24.6277 80.3053 27.2219 78.1649 28.9896 75.7952C30.7574 73.4255 31.3152 69.9991 30.9581 67.0549L30.9552 67.0608Z" fill="#28CEB0"/>
<g style="mix-blend-mode:soft-light" opacity="0.7">
<path d="M33.1243 77.0366C33.1922 77.4921 33.5817 77.894 34.0628 77.8731C38.59 77.6856 43.0345 76.346 46.9419 74.0358C48.875 72.8927 50.6841 71.5054 52.2866 69.9276C53.0686 69.1566 53.8035 68.3379 54.4852 67.4716C55.2732 66.4684 56.1025 65.3997 56.2973 64.1017C56.312 64.0065 56.315 63.9112 56.3209 63.813C56.4537 62.6847 56.1674 61.479 55.3175 60.6901C53.5527 59.0498 50.9084 59.7226 49.2822 61.1843C48.4057 61.9732 47.7387 62.9794 47.0747 63.9469C46.4166 64.9025 45.7437 65.8492 45.0325 66.7661C43.5952 68.6267 42.0281 70.398 40.2722 71.9579C38.3657 73.6518 36.1965 75.0807 33.809 75.9798C33.3634 76.1465 33.0476 76.5394 33.1243 77.0396V77.0366Z" fill="white"/>
</g>
</svg>
