<svg width="40" height="40" viewBox="0 0 40 40" fill="none" xmlns="http://www.w3.org/2000/svg">
<g id="gift-fill">
<path id="Vector" d="M14.9971 5C11.3154 5 8.3304 7.985 8.3304 11.6667H6.66374C5.74374 11.6667 4.99707 12.4133 4.99707 13.3333V18.3333H34.9971V13.3333C34.9971 12.4133 34.2504 11.6667 33.3304 11.6667H31.6637C31.6637 7.985 28.6787 5 24.9971 5C22.9787 5 21.2204 5.92668 19.9971 7.34334C18.7737 5.92668 17.0154 5 14.9971 5ZM14.9971 8.33333C16.8387 8.33333 18.3304 9.825 18.3304 11.6667H11.6637C11.6637 9.825 13.1554 8.33333 14.9971 8.33333ZM24.9971 8.33333C26.8387 8.33333 28.3304 9.825 28.3304 11.6667H21.6637C21.6637 9.825 23.1554 8.33333 24.9971 8.33333Z" fill="#272836"/>
<path id="Vector_2" opacity="0.4" d="M6.66699 21.6667V28.3333C6.66699 32.015 9.65199 35 13.3337 35H18.3337V21.6667H6.66699ZM21.667 21.6667V35H26.667C30.3487 35 33.3337 32.015 33.3337 28.3333V21.6667H21.667Z" fill="#272836"/>
</g>
</svg>
