<svg width="40" height="40" viewBox="0 0 40 40" fill="none" xmlns="http://www.w3.org/2000/svg">
<g id="people-fill">
<path id="Vector" d="M25.8333 5C21.6912 5 18.3333 8.35833 18.3333 12.5C18.3333 16.6417 21.6912 20 25.8333 20C29.9755 20 33.3333 16.6417 33.3333 12.5C33.3333 8.35833 29.9755 5 25.8333 5ZM20.1042 22.24C17.0473 23.5017 15 26.5933 15 30V33.3333C15 34.2533 15.7462 35 16.6667 35H35C35.9205 35 36.6667 34.2533 36.6667 33.3333V30C36.6667 26.6733 34.608 23.6567 31.5625 22.3433C31.1338 22.1583 30.6343 22.1533 30.2083 22.3433C28.7337 23.005 27.297 23.3333 25.8333 23.3333C24.3747 23.3333 22.933 22.9867 21.4063 22.2917C20.9865 22.1 20.5305 22.0633 20.1042 22.24Z" fill="#272836"/>
<path id="Vector_2" opacity="0.4" d="M13.333 6.66666C9.65118 6.66666 6.66634 9.65166 6.66634 13.3333C6.66634 17.015 9.65118 20 13.333 20C14.7153 20 15.9772 19.62 17.0877 18.8434C14.2397 14.61 14.6433 10.5567 16.1955 7.29166C15.309 6.87166 14.3353 6.66666 13.333 6.66666ZM8.43718 22.24C5.38034 23.5017 3.33301 26.5933 3.33301 30V33.3333C3.33301 34.2533 4.07917 35 4.99967 35L11.921 35.0034C11.531 33.7367 11.6457 31.6833 11.6713 30.0217C11.7255 26.4933 13.1847 23.9766 13.7562 23.3133C12.7058 23.305 11.4453 23.05 10.5205 22.6567C10.2972 22.5617 10.1675 22.4867 9.73934 22.2917C9.31951 22.1 8.86351 22.0633 8.43718 22.24Z" fill="#272836"/>
</g>
</svg>
