<svg width="350" height="82" viewBox="0 0 350 82" fill="none" xmlns="http://www.w3.org/2000/svg">
<path d="M83.3306 54.0317C86.7857 52.3113 89.2733 50.522 91.374 49.1457C93.5299 47.7143 95.2436 46.2279 96.515 44.6864C97.7865 43.0898 98.671 41.4932 99.1685 39.8967C99.666 38.2451 99.9148 36.621 99.9148 35.0244C99.9148 31.6661 99.1408 28.5831 97.593 25.7754C96.0451 22.9676 94.0274 20.6829 91.5398 18.9212H82.5015V14.7096H85.3208L82.8331 13.1405L87.3109 10.4154C88.7481 11.021 90.2131 11.6816 91.7056 12.3973C93.1982 13.113 94.7184 13.8838 96.2663 14.7096H140.297V18.9212H133.912V67.8089L120.562 59.3031V52.6141C118.074 49.2558 115.67 47.1913 113.348 46.4205C111.579 52.8068 107.599 58.0919 101.407 62.276L83.3306 54.0317ZM120.562 18.9212H103.149C104.807 20.0773 106.272 21.4261 107.543 22.9676C108.87 24.5091 109.976 26.1332 110.86 27.8399C111.8 29.4915 112.519 31.1982 113.016 32.9599C113.569 34.7216 113.901 36.4283 114.011 38.0799C115.946 38.5754 118.13 39.4562 120.562 40.7225V18.9212Z" fill="#215A4D"/>
<path d="M185.634 65.0012L175.933 73.507L137.789 55.5044L144.423 41.8786C147.076 43.31 149.564 44.301 151.886 44.8515C154.263 45.347 156.419 45.5947 158.354 45.5947C160.233 45.5947 161.974 45.3745 163.578 44.9341C165.181 44.4937 166.535 43.8881 167.641 43.1173C168.802 42.3466 169.686 41.4382 170.294 40.3922C170.958 39.3461 171.289 38.2175 171.289 37.0063C171.289 35.1896 170.377 33.3177 168.553 31.3909C168.055 30.8954 167.447 30.4825 166.729 30.1522C166.065 29.8218 165.429 29.5741 164.821 29.4089C164.213 29.2438 163.688 29.1337 163.246 29.0786C162.859 28.9685 162.665 28.9135 162.665 28.9135L162.002 29.6567C162.776 30.7577 163.163 31.8313 163.163 32.8773C163.163 33.9784 162.859 34.9969 162.251 35.9328C161.698 36.8687 160.952 37.6945 160.012 38.4102C159.128 39.0709 158.132 39.5939 157.027 39.9793C155.921 40.3646 154.843 40.5573 153.793 40.5573C151.25 40.5573 149.039 39.8967 147.159 38.5754C145.28 37.2541 144.174 35.1896 143.843 32.3818C143.898 31.7762 144.119 31.2257 144.506 30.7302C144.948 30.1797 145.418 29.5466 145.916 28.8309C146.413 28.0601 146.911 27.0967 147.408 25.9405C147.906 24.7294 148.293 23.1603 148.569 21.2334H163.743C164.96 21.2334 166.314 21.4812 167.807 21.9767C169.299 22.4171 170.764 22.9952 172.201 23.7109C173.639 24.4266 174.965 25.2248 176.182 26.1057C177.398 26.9315 178.337 27.7023 179.001 28.418C180.438 30.0145 181.461 31.6661 182.069 33.3728C182.732 35.0795 183.064 36.7861 183.064 38.4928C183.064 40.5298 182.649 42.5117 181.82 44.4386C180.991 46.3104 179.802 48.0446 178.255 49.6412C176.762 51.1827 174.91 52.504 172.699 53.6051C170.488 54.7061 168 55.4494 165.236 55.8347L166.894 56.7431L185.634 65.0012ZM136.96 18.9212V14.7096H187.873V18.9212H136.96Z" fill="#215A4D"/>
<path d="M204.52 68.1393L190.921 59.3857V25.2799C190.147 23.2429 189.207 21.6739 188.101 20.5728C186.996 19.4717 185.807 18.9212 184.536 18.9212V14.7096H186.028C187.3 14.7096 188.931 15.095 190.921 15.8657V12.9754L204.52 10.498V14.7096H210.904V18.9212H204.52V68.1393Z" fill="#215A4D"/>
<path d="M246.382 52.7793V18.9212H231.622C234.994 21.5638 237.675 24.344 239.666 27.2618C241.711 30.1797 242.734 33.3728 242.734 36.8412L242.817 37.0063L236.763 40.5573C235.437 41.3281 234.055 42.0988 232.617 42.8696C231.235 43.5853 229.909 44.3836 228.637 45.2644C231.291 46.0352 234.193 47.0537 237.344 48.3199C240.495 49.5311 243.508 51.0175 246.382 52.7793ZM234.276 52.6967C234.331 52.6416 234.58 52.6141 235.022 52.6141C235.63 52.6141 236.211 52.8068 236.763 53.1922C237.316 53.5775 237.786 54.073 238.173 54.6786C238.615 55.2291 238.947 55.8898 239.168 56.6605C239.444 57.4313 239.583 58.1745 239.583 58.8902C239.583 60.3216 239.002 61.5603 237.841 62.6063C236.68 63.5973 235.133 64.0928 233.198 64.0928C232.203 64.0928 231.318 63.9001 230.544 63.5147C229.77 63.1294 229.107 62.6614 228.554 62.1109C228.057 61.5603 227.67 60.9547 227.393 60.2941C227.117 59.6334 226.979 59.0003 226.979 58.3947C226.979 57.7341 227.062 57.1285 227.227 56.578C227.449 55.9724 227.67 55.4218 227.891 54.9263C228.167 54.4309 228.416 54.018 228.637 53.6876C228.858 53.3573 228.969 53.1371 228.969 53.027L229.135 52.8618C229.245 52.8618 229.494 52.9169 229.881 53.027C230.323 53.0821 230.876 53.1096 231.539 53.1096C231.926 53.1096 232.341 53.0821 232.783 53.027C233.281 52.9719 233.778 52.8618 234.276 52.6967ZM229.549 28.996C227.559 24.9221 224.933 21.5638 221.672 18.9212H207.575V14.7096H214.872C214.264 14.4343 213.629 14.159 212.965 13.8838C212.357 13.5535 211.694 13.2507 210.975 12.9754L214.375 9.507C217.913 10.9384 221.478 12.6726 225.072 14.7096H265.868V18.9212H259.484V68.2218L256.747 65.9922C251.44 61.8631 246.106 58.8902 240.744 57.0734C240.301 55.0915 239.527 53.6326 238.422 52.6967C237.371 51.7608 236.211 51.2928 234.939 51.2928C234.386 51.2928 233.806 51.3754 233.198 51.5405C232.645 51.6507 232.12 51.7057 231.622 51.7057C230.738 51.7057 230.24 51.6782 230.13 51.6231L228.637 51.2102L228.057 51.8709C228.057 51.9259 227.946 52.0911 227.725 52.3663C227.504 52.6416 227.255 52.9995 226.979 53.4399C225.763 53.2197 224.519 52.9995 223.247 52.7793C221.976 52.559 220.649 52.3388 219.267 52.1186L212.302 38.8231C212.357 38.8231 212.385 38.7956 212.385 38.7405H212.468C212.799 38.5203 213.49 38.0799 214.541 37.4193C215.591 36.7586 216.89 35.9879 218.438 35.107C220.041 34.1711 221.782 33.1801 223.662 32.1341C225.597 31.033 227.559 29.987 229.549 28.996Z" fill="#215A4D"/>
<path d="M326.452 14.7096V18.9212H262.52V14.7096H326.452ZM320.564 48.3199C319.514 50.6322 318.464 52.4214 317.413 53.6876L315.838 55.587C313.682 57.9543 310.835 59.8537 307.297 61.2851C303.759 62.7165 299.751 63.4322 295.273 63.4322C292.067 63.4322 289.11 63.0743 286.401 62.3586C283.747 61.5879 281.315 60.6519 279.104 59.5509C276.893 58.4498 274.93 57.2661 273.217 55.9999C271.558 54.7337 270.149 53.55 268.988 52.4489C267.827 51.3479 266.942 50.4395 266.334 49.7238C265.781 49.0081 265.505 48.6777 265.505 48.7328L275.373 24.7844C276.312 29.464 277.501 33.4003 278.938 36.5934C280.431 39.7866 282.089 42.3741 283.913 44.356C285.738 46.338 287.7 47.7694 289.801 48.6502C291.901 49.476 294.03 49.8889 296.186 49.8889C298.286 49.8889 300.221 49.5861 301.99 48.9805C303.759 48.3199 305.279 47.4941 306.551 46.5031C307.822 45.4571 308.789 44.301 309.453 43.0347C310.171 41.7134 310.531 40.4197 310.531 39.1534C310.531 37.0614 310.089 35.3823 309.204 34.116C308.32 32.8498 307.325 31.8864 306.219 31.2257C305.169 30.5651 304.174 30.1522 303.234 29.987C302.294 29.7668 301.797 29.6567 301.741 29.6567C301.741 29.6567 301.935 29.8494 302.322 30.2347C302.764 30.6201 303.206 31.1707 303.648 31.8864C304.091 32.547 304.505 33.3453 304.892 34.2812C305.279 35.2171 305.473 36.2081 305.473 37.2541C305.473 38.0799 305.252 39.0158 304.809 40.0618C304.367 41.1079 303.731 42.0713 302.902 42.9522C302.128 43.833 301.161 44.5762 300 45.1818C298.839 45.7874 297.54 46.0902 296.103 46.0902C294.721 46.0902 293.394 45.8425 292.122 45.347C290.851 44.8515 289.718 44.1909 288.723 43.3651C287.728 42.5393 286.926 41.6033 286.318 40.5573C285.71 39.5113 285.406 38.4377 285.406 37.3367C285.406 36.8412 285.434 36.3732 285.489 35.9328C285.599 35.4924 285.793 34.9969 286.069 34.4464C287.507 31.4734 288.419 29.1337 288.806 27.427C289.248 25.6653 289.469 24.3165 289.469 23.3805C289.469 22.775 289.414 22.3621 289.303 22.1418C289.248 21.9216 289.22 21.784 289.22 21.7289H308.043C312.742 24.2064 316.197 27.1793 318.408 30.6476C320.619 34.116 321.725 37.8322 321.725 41.796C321.725 43.7229 321.338 45.8975 320.564 48.3199Z" fill="#215A4D"/>
<path d="M343.117 68.1393L329.518 59.3857V25.2799C328.744 23.2429 327.804 21.6739 326.698 20.5728C325.593 19.4717 324.404 18.9212 323.133 18.9212V14.7096H324.625C325.897 14.7096 327.528 15.095 329.518 15.8657V12.9754L343.117 10.498V14.7096H349.501V18.9212H343.117V68.1393Z" fill="#215A4D"/>
<path d="M21.8389 23.1765C22.9043 14.0224 29.4914 5.53507 38.1267 2.51942C41.2077 1.44473 45.003 0.289676 49.2823 1.23039C56.4006 2.79627 68.0491 8.91094 70.2212 27.1418C60.2579 11.5842 42.6656 15.0673 37.8906 23.4117C36.1169 22.6466 29.6448 21.0361 27.7266 21.2653C25.8112 21.4945 23.6893 22.6139 21.8389 23.1735V23.1765Z" fill="#952F21"/>
<path d="M6.74036 35.1975C6.84366 39.648 7.50178 44.0837 8.69702 48.3675C8.85639 48.9361 9.05117 49.5464 9.52632 49.8947C10.09 50.3115 10.9222 50.2132 11.4771 49.7875C12.0319 49.3588 12.3329 48.6652 12.4362 47.9686C12.5395 47.272 12.4598 46.5635 12.3831 45.8639C11.8873 41.3687 11.3915 36.8765 10.8927 32.3813C11.8784 37.1117 14.8621 41.2526 17.6982 45.1494C18.0967 45.6972 18.5866 46.2985 19.2594 46.3343C20.0091 46.373 20.6111 45.6555 20.7764 44.9172C21.0036 43.8902 20.6229 42.8304 20.1802 41.8748C19.3362 40.0529 18.2413 38.359 17.3795 36.546C16.5148 34.7331 15.8773 32.7445 16.0367 30.741C16.9722 33.9978 19.3657 36.5907 21.7591 38.9752C22.3051 39.52 22.9603 40.1005 23.7276 40.032C24.4123 39.9695 24.9641 39.3593 25.1117 38.6835C25.2563 38.0077 25.0556 37.2932 24.7162 36.6919C24.3769 36.0906 23.9047 35.5785 23.4561 35.0516C22.314 33.7149 21.2869 32.2473 20.6406 30.607C19.9943 28.9637 19.7464 27.1299 20.1655 25.4152C17.2585 24.7454 14.1774 25.8677 11.9286 27.8444C9.67978 29.8211 6.66953 32.1967 6.74036 35.2034V35.1975Z" fill="#952F21"/>
<path d="M40.0477 14.9452C40.3811 17.7078 39.4043 20.4674 38.1353 22.9383C36.8692 25.4121 35.2962 27.7342 34.2898 30.3241C32.5102 34.9086 32.6194 39.9754 32.3007 44.8874C32.2122 46.2598 31.9525 47.8524 30.7572 48.5163C29.8158 49.0402 28.5763 48.7396 27.7676 48.0221C26.9619 47.3047 26.5222 46.2508 26.2684 45.197C24.9522 39.7402 28.2428 33.8667 25.8051 28.8178C24.6629 26.4511 21.5376 25.5937 19.0409 26.3558C16.5441 27.1179 14.6052 29.1155 13.0706 31.244C9.6855 35.9327 7.18287 41.0441 5.38558 46.5515C5.16128 47.2422 4.85436 48.4062 4.42053 48.9867C3.9867 49.5672 3.08362 49.9482 2.36353 49.9006C1.50472 49.841 0.713795 49.207 0.519014 48.0876C0.33899 47.0487 1.35126 38.2845 3.06887 33.4856C4.57694 29.2703 6.69592 24.4923 9.14838 20.7562C22.1928 0.882022 41.2222 -0.975598 49.2791 1.23033C46.378 1.69473 43.7839 3.83516 42.0161 6.20482C40.2483 8.57448 39.6906 12.001 40.0477 14.9452Z" fill="#E85642"/>
<g style="mix-blend-mode:soft-light" opacity="0.5">
<path d="M37.8787 4.96945C37.8109 4.51398 37.4213 4.11209 36.9402 4.13292C32.4131 4.32047 27.9685 5.6601 24.0611 7.97022C22.1281 9.11337 20.319 10.5006 18.7165 12.0784C17.9344 12.8495 17.1995 13.6681 16.5178 14.5344C15.7298 15.5376 14.9005 16.6064 14.7057 17.9043C14.691 17.9996 14.688 18.0948 14.6821 18.1931C14.5493 19.3214 14.8356 20.527 15.6856 21.3159C17.4504 22.9562 20.0947 22.2834 21.7208 20.8217C22.5973 20.0328 23.2643 19.0266 23.9283 18.0591C24.5864 17.1035 25.2593 16.1569 25.9706 15.2399C27.4078 13.3794 28.9749 11.6081 30.7309 10.0481C32.6374 8.35425 34.8065 6.92531 37.194 6.02627C37.6397 5.85956 37.9555 5.4666 37.8787 4.96647V4.96945Z" fill="white"/>
</g>
<path d="M49.1642 58.8375C48.0988 67.9916 41.5117 76.4789 32.8764 79.4946C29.7953 80.5692 26 81.7243 21.7208 80.7836C14.6024 79.2177 2.95396 73.103 0.78186 54.8722C10.7452 70.4297 28.3374 66.9467 33.1125 58.6023C34.8862 59.3674 41.3582 60.9779 43.2765 60.7487C45.1918 60.5194 47.3138 59.4001 49.1642 58.8404V58.8375Z" fill="#0B6F5D"/>
<path d="M64.2597 46.8165C64.1564 42.366 63.4983 37.9303 62.303 33.6465C62.1437 33.0779 61.9489 32.4676 61.4737 32.1193C60.9101 31.7025 60.0778 31.8008 59.523 32.2265C58.9682 32.6551 58.6671 33.3488 58.5638 34.0454C58.4635 34.742 58.5402 35.4505 58.617 36.1501C59.1128 40.6453 59.6086 45.1375 60.1073 49.6327C59.1216 44.9023 56.1379 40.7614 53.3018 36.8646C52.9034 36.3168 52.4135 35.7155 51.7406 35.6797C50.991 35.641 50.389 36.3585 50.2237 37.0968C49.9964 38.1238 50.3772 39.1836 50.8198 40.1392C51.6639 41.9611 52.7588 43.655 53.6205 45.468C54.4853 47.2809 55.1227 49.2695 54.9633 51.273C54.0278 48.0162 51.6344 45.4233 49.2409 43.0388C48.695 42.494 48.0398 41.9135 47.2725 41.982C46.5878 42.0445 46.0359 42.6547 45.8883 43.3305C45.7437 44.0063 45.9444 44.7207 46.2838 45.3221C46.6232 45.9234 47.0954 46.4355 47.544 46.9624C48.6861 48.2991 49.7131 49.7667 50.3594 51.407C51.0058 53.0503 51.2537 54.8841 50.8346 56.5988C53.7415 57.2686 56.8226 56.1463 59.0715 54.1696C61.3203 52.1929 64.3305 49.8173 64.2597 46.8106V46.8165Z" fill="#0B6F5D"/>
<path d="M30.9552 67.0688C30.6217 64.3061 31.5985 61.5465 32.8675 59.0756C34.1336 56.6018 35.7066 54.2798 36.713 51.6898C38.4926 47.1053 38.3834 42.0385 38.7021 37.1265C38.7906 35.7542 39.0504 34.1615 40.2456 33.4976C41.187 32.9737 42.4265 33.2744 43.2352 33.9918C44.0409 34.7092 44.4806 35.7631 44.7344 36.8169C46.0506 42.2737 42.76 48.1472 45.1977 53.1961C46.3399 55.5628 49.4652 56.4202 51.9619 55.6581C54.4587 54.896 56.3976 52.8984 57.9323 50.7699C61.3173 46.0812 63.8199 40.9698 65.6172 35.4624C65.8415 34.7718 66.1485 33.6078 66.5823 33.0273C67.0161 32.4468 67.9192 32.0657 68.6393 32.1133C69.4981 32.1729 70.289 32.807 70.4838 33.9263C70.6638 34.9653 69.6516 43.7294 67.9339 48.5283C66.4259 52.7436 64.3069 57.5217 61.8544 61.2577C48.813 81.1259 29.7865 82.9836 21.7267 80.7777C24.6277 80.3132 27.2219 78.1728 28.9896 75.8032C30.7574 73.4335 31.3152 70.007 30.9581 67.0628L30.9552 67.0688Z" fill="#26A891"/>
<g style="mix-blend-mode:soft-light" opacity="0.7">
<path d="M33.1243 77.0445C33.1922 77.5 33.5817 77.9019 34.0628 77.8811C38.59 77.6935 43.0345 76.3539 46.9419 74.0438C48.875 72.9006 50.6841 71.5134 52.2866 69.9356C53.0686 69.1645 53.8035 68.3459 54.4852 67.4796C55.2732 66.4763 56.1025 65.4076 56.2973 64.1097C56.312 64.0144 56.315 63.9191 56.3209 63.8209C56.4537 62.6926 56.1674 61.487 55.3175 60.6981C53.5527 59.0578 50.9084 59.7306 49.2822 61.1922C48.4057 61.9811 47.7387 62.9874 47.0747 63.9549C46.4166 64.9105 45.7437 65.8571 45.0325 66.774C43.5952 68.6346 42.0281 70.4059 40.2722 71.9658C38.3657 73.6597 36.1965 75.0887 33.809 75.9877C33.3634 76.1544 33.0476 76.5474 33.1243 77.0475V77.0445Z" fill="white"/>
</g>
</svg>
