<svg width="35" height="40" viewBox="0 0 35 40" fill="none" xmlns="http://www.w3.org/2000/svg">
<rect width="35" height="40" fill="#F5F5F5"/>
<g id="Desktop - 2" clip-path="url(#clip0_0_1)">
<rect width="1440" height="4982" transform="translate(-120 -82)" fill="#F9FAFC"/>
<g id="Hero" clip-path="url(#clip1_0_1)">
<rect width="1440" height="714" transform="translate(-120 -22)" fill="#215A4D"/>
</g>
<g id="Header">
<mask id="path-1-inside-1_0_1" fill="white">
<path d="M-120 -22H1320V58H-120V-22Z"/>
</mask>
<path d="M-120 -22H1320V58H-120V-22Z" fill="#215A4D"/>
<g id="Logo">
<g id="Group">
<g id="a">
<g id="Group_2">
<g id="Group_3">
<g id="Group_4">
<path id="Vector" d="M10.6395 11.1959C11.1707 6.6751 14.4548 2.48363 18.76 0.994346C20.2961 0.463614 22.1883 -0.106814 24.3218 0.357761C27.8707 1.13107 33.6782 4.15081 34.7612 13.1542C29.7938 5.47103 21.023 7.19113 18.6423 11.312C17.758 10.9342 14.5313 10.1388 13.5749 10.252C12.62 10.3652 11.5621 10.918 10.6395 11.1944V11.1959Z" fill="#732216"/>
<path id="Vector_2" d="M3.112 17.1324C3.1635 19.3303 3.49161 21.5209 4.08752 23.6365C4.16697 23.9173 4.26408 24.2187 4.50097 24.3907C4.78201 24.5965 5.19693 24.548 5.47355 24.3378C5.75017 24.126 5.90025 23.7835 5.95174 23.4395C6.00324 23.0955 5.96351 22.7456 5.92526 22.4001C5.67807 20.1801 5.43088 17.9616 5.18222 15.7416C5.67365 18.0778 7.16121 20.1228 8.5752 22.0472C8.77383 22.3177 9.01808 22.6147 9.35355 22.6324C9.72728 22.6515 10.0274 22.2972 10.1098 21.9325C10.2231 21.4253 10.0333 20.902 9.81262 20.43C9.39181 19.5303 8.84593 18.6938 8.41629 17.7984C7.98518 16.9031 7.66736 15.921 7.74681 14.9316C8.21324 16.54 9.40652 17.8205 10.5998 18.9981C10.872 19.2671 11.1986 19.5538 11.5812 19.52C11.9226 19.4891 12.1977 19.1877 12.2713 18.854C12.3434 18.5203 12.2433 18.1674 12.0741 17.8705C11.9049 17.5735 11.6695 17.3206 11.4458 17.0604C10.8764 16.4003 10.3644 15.6755 10.0422 14.8654C9.71992 14.0539 9.59632 13.1483 9.80526 12.3014C8.35596 11.9706 6.81985 12.5249 5.69867 13.5011C4.57749 14.4773 3.07669 15.6505 3.112 17.1354V17.1324Z" fill="#732216"/>
<path id="Vector_3" d="M19.7178 7.13082C19.8841 8.49514 19.397 9.85799 18.7643 11.0782C18.1331 12.3 17.3489 13.4467 16.8471 14.7257C15.9599 16.9898 16.0144 19.492 15.8554 21.9178C15.8113 22.5956 15.6818 23.3821 15.0859 23.71C14.6165 23.9687 13.9986 23.8202 13.5954 23.4659C13.1937 23.1116 12.9745 22.5912 12.848 22.0707C12.1917 19.3759 13.8323 16.4752 12.617 13.9818C12.0475 12.813 10.4894 12.3896 9.24458 12.766C7.9998 13.1424 7.03311 14.1288 6.268 15.18C4.58034 17.4955 3.33262 20.0198 2.43656 22.7397C2.32473 23.0807 2.17171 23.6556 1.95542 23.9423C1.73913 24.2289 1.28889 24.4171 0.929876 24.3936C0.501708 24.3642 0.107381 24.0511 0.0102709 23.4983C-0.0794826 22.9852 0.425197 18.657 1.28153 16.2871C2.0334 14.2053 3.08985 11.8457 4.31255 10.0006C10.816 0.185716 20.3034 -0.731673 24.3202 0.357726C22.8739 0.587074 21.5805 1.64413 20.6992 2.81439C19.8178 3.98465 19.5398 5.67682 19.7178 7.13082Z" fill="#E85642"/>
</g>
<g id="Vector_4" style="mix-blend-mode:soft-light" opacity="0.7">
<path d="M18.6365 2.20427C18.6026 1.97934 18.4084 1.78086 18.1686 1.79115C15.9115 1.88378 13.6956 2.54535 11.7475 3.68621C10.7838 4.25076 9.88181 4.93586 9.08285 5.71505C8.69294 6.09582 8.32657 6.50012 7.98668 6.92794C7.59383 7.42339 7.18037 7.95118 7.08326 8.59218C7.07591 8.63923 7.07443 8.68627 7.07149 8.73479C7.00528 9.29198 7.148 9.8874 7.57176 10.277C8.45164 11.0871 9.76998 10.7548 10.5807 10.0329C11.0177 9.64335 11.3502 9.14644 11.6813 8.66863C12.0094 8.1967 12.3449 7.72919 12.6995 7.27637C13.416 6.35752 14.1973 5.48276 15.0728 4.71239C16.0233 3.87586 17.1048 3.17018 18.2951 2.72619C18.5173 2.64386 18.6747 2.44979 18.6365 2.2028V2.20427Z" fill="white"/>
</g>
</g>
<g id="Group_5">
<g id="Group_6">
<path id="Vector_5" d="M24.263 28.8071C23.7318 33.3279 20.4477 37.5193 16.1425 39.0086C14.6064 39.5394 12.7142 40.1098 10.5807 39.6452C7.03178 38.8719 1.22429 35.8522 0.141357 26.8488C5.1087 34.5319 13.8795 32.8118 16.2602 28.6909C17.1445 29.0688 20.3712 29.8641 21.3276 29.7509C22.2825 29.6377 23.3404 29.085 24.263 28.8086V28.8071Z" fill="#11352C"/>
<path id="Vector_6" d="M31.789 22.8705C31.7375 20.6726 31.4094 18.482 30.8135 16.3665C30.7341 16.0857 30.637 15.7843 30.4001 15.6123C30.119 15.4064 29.7041 15.455 29.4275 15.6652C29.1509 15.8769 29.0008 16.2194 28.9493 16.5635C28.8993 16.9075 28.9375 17.2574 28.9758 17.6029C29.223 19.8228 29.4702 22.0413 29.7188 24.2613C29.2274 21.9252 27.7398 19.8802 26.3259 17.9557C26.1272 17.6852 25.883 17.3882 25.5475 17.3706C25.1738 17.3515 24.8736 17.7058 24.7912 18.0704C24.6779 18.5776 24.8677 19.101 25.0884 19.5729C25.5092 20.4727 26.0551 21.3092 26.4848 22.2045C26.9159 23.0999 27.2337 24.0819 27.1542 25.0714C26.6878 23.463 25.4945 22.1825 24.3012 21.0049C24.029 20.7358 23.7024 20.4491 23.3198 20.483C22.9785 20.5138 22.7033 20.8152 22.6298 21.1489C22.5577 21.4827 22.6577 21.8355 22.8269 22.1325C22.9961 22.4295 23.2316 22.6823 23.4552 22.9426C24.0246 23.6027 24.5367 24.3275 24.8589 25.1375C25.1811 25.9491 25.3047 26.8547 25.0958 27.7015C26.5451 28.0323 28.0812 27.478 29.2024 26.5018C30.3236 25.5256 31.8244 24.3524 31.789 22.8676V22.8705Z" fill="#11352C"/>
<path id="Vector_7" d="M15.1847 32.8721C15.0184 31.5078 15.5054 30.145 16.1381 28.9247C16.7693 27.703 17.5536 26.5563 18.0553 25.2772C18.9425 23.0131 18.8881 20.5109 19.047 18.0851C19.0911 17.4074 19.2206 16.6208 19.8165 16.293C20.2859 16.0342 20.9039 16.1827 21.307 16.537C21.7087 16.8913 21.9279 17.4118 22.0545 17.9322C22.7107 20.627 21.0701 23.5277 22.2855 26.0211C22.8549 27.1899 24.4131 27.6133 25.6579 27.2369C26.9026 26.8606 27.8693 25.8741 28.6344 24.8229C30.3221 22.5074 31.5698 19.9831 32.4659 17.2633C32.5777 16.9222 32.7307 16.3474 32.947 16.0607C33.1633 15.774 33.6135 15.5858 33.9726 15.6093C34.4007 15.6387 34.7951 15.9519 34.8922 16.5047C34.9819 17.0178 34.4772 21.346 33.6209 23.7159C32.869 25.7976 31.8126 28.1573 30.5899 30.0023C24.0879 39.8143 14.602 40.7317 10.5837 39.6423C12.03 39.4129 13.3234 38.3559 14.2047 37.1856C15.0861 36.0154 15.3642 34.3232 15.1861 32.8692L15.1847 32.8721Z" fill="#28CEB0"/>
</g>
<g id="Vector_8" style="mix-blend-mode:soft-light" opacity="0.7">
<path d="M16.2661 37.7986C16.3 38.0236 16.4942 38.222 16.734 38.2118C18.9911 38.1191 21.207 37.4576 23.1551 36.3167C24.1188 35.7522 25.0208 35.0671 25.8197 34.2879C26.2096 33.9071 26.576 33.5028 26.9159 33.075C27.3087 32.5795 27.7222 32.0517 27.8193 31.4107C27.8267 31.3637 27.8281 31.3166 27.8311 31.2681C27.8973 30.7109 27.7546 30.1155 27.3308 29.7259C26.4509 28.9158 25.1326 29.2481 24.3219 29.97C23.8849 30.3596 23.5523 30.8565 23.2213 31.3343C22.8932 31.8062 22.5577 32.2737 22.2031 32.7265C21.4865 33.6454 20.7052 34.5201 19.8298 35.2905C18.8793 36.127 17.7978 36.8327 16.6075 37.2767C16.3853 37.3591 16.2279 37.5531 16.2661 37.8001V37.7986Z" fill="white"/>
</g>
</g>
</g>
</g>
</g>
</g>
<path d="M1320 57H-120V59H1320V57Z" fill="#347666" mask="url(#path-1-inside-1_0_1)"/>
</g>
</g>
<defs>
<clipPath id="clip0_0_1">
<rect width="1440" height="4982" fill="white" transform="translate(-120 -82)"/>
</clipPath>
<clipPath id="clip1_0_1">
<rect width="1440" height="714" fill="white" transform="translate(-120 -22)"/>
</clipPath>
</defs>
</svg>
