<svg width="162" height="56" viewBox="0 0 162 56" fill="none" xmlns="http://www.w3.org/2000/svg">
<path id="Vector" opacity="0.3" d="M3.93014 22.6543C7.77158 27.0499 12.111 30.8678 16.8375 34.0104C19.8225 36.0843 23.2163 38.2363 26.8926 40.4028C30.8168 42.7463 34.8809 44.784 39.0556 46.5013C41.3062 47.4168 43.6078 48.1665 45.9453 48.7457C48.3657 49.3793 50.8313 49.7691 53.3124 49.9103C55.8533 50.0876 58.4027 49.9289 60.9075 49.4375C63.4442 48.9813 65.9119 48.1424 68.2429 46.9438L68.6238 46.7338C68.5253 46.614 68.4006 46.5073 68.2893 46.3869C64.1048 41.8141 61.3594 35.8566 60.4661 29.4108C60.0446 26.1363 60.225 22.8034 60.9964 19.6151C61.8024 16.2748 63.3638 13.2243 65.5317 10.755C66.6391 9.41424 67.9318 8.27972 69.3614 7.39414C70.9567 6.38856 72.7384 5.80268 74.5709 5.68105C76.3529 5.61288 78.1294 5.96489 79.7843 6.71404C81.4391 7.4632 82.9351 8.59265 84.1743 10.0285C86.4181 12.631 87.7764 16.0238 88.013 19.617C88.2467 22.9062 87.8968 26.2116 86.9835 29.3443C86.1093 32.4335 84.8122 35.3516 83.1378 37.9957C81.0414 41.2903 78.4552 44.1601 75.4902 46.4819C76.1848 46.9731 76.9078 47.4123 77.6542 47.7968C82.0438 50.1008 86.8334 51.2905 91.6767 51.28C96.1931 51.3043 100.684 50.5665 104.996 49.0916C108.768 47.8254 112.385 46.05 115.767 43.8049C118.602 41.823 121.269 39.5594 123.737 37.0416C127.634 33.1474 131.135 28.7866 134.176 24.0375C136.239 20.8702 138.083 17.532 139.692 14.0516C140.967 11.2486 141.803 9.16901 142.417 7.5369C142.971 6.13117 143.301 5.18729 143.585 4.47044L142.7 5.09924C140.176 6.89201 137.867 8.46625 135.89 9.742C131.936 12.2792 129.31 13.7082 129.007 13.2052C128.704 12.7022 130.712 10.5963 134.25 7.47866C136.019 5.90552 138.157 4.1074 140.571 2.1513L141.486 1.40931C141.877 1.08523 142.292 0.799357 142.727 0.554868C143.009 0.403059 143.302 0.278877 143.603 0.183705C143.985 0.0617952 144.382 -4.15405e-05 144.78 2.09367e-08C145.601 6.42642e-05 146.401 0.292093 147.065 0.833584C147.871 1.5815 148.545 2.49153 149.05 3.51603L150.394 5.77862C157.642 18.4808 162.814 29.2271 161.894 29.7681C160.973 30.309 154.34 20.4632 147.078 7.76042L146.137 6.07766C146.014 6.90781 145.842 7.72777 145.622 8.53216C145.01 10.9456 144.235 13.3029 143.302 15.5837C141.802 19.3559 139.993 22.9646 137.898 26.364C134.801 31.4816 131.173 36.1721 127.088 40.3387C124.41 43.0927 121.506 45.5609 118.414 47.7113C114.689 50.2161 110.696 52.1899 106.528 53.5864C101.722 55.2322 96.7154 56.0455 91.682 55.998C86.0791 55.989 80.5438 54.5796 75.4834 51.8733C74.0223 51.1003 72.6346 50.1647 71.3414 49.0808C70.8289 49.3701 70.3165 49.6595 69.7928 49.9052C67.1627 51.2066 64.3859 52.1067 61.5371 52.5813C58.7767 53.0538 55.9748 53.1659 53.1882 52.9154C50.5275 52.7041 47.8885 52.2238 45.3036 51.4806C42.874 50.8232 40.4854 49.9875 38.1533 48.9791C33.911 47.1257 29.7957 44.9266 25.8408 42.3998C22.1445 40.0793 18.7983 37.8006 15.8021 35.5637C11.0924 32.1736 6.85455 28.0289 3.22571 23.2636C2.27932 21.985 1.42211 20.6277 0.661652 19.2037C0.170721 18.2178 -0.0557524 17.7331 0.0116343 17.6505C0.079021 17.5679 1.33108 19.5389 3.95583 22.6556L3.93014 22.6543ZM71.6535 43.0883C71.9624 43.4339 72.2979 43.7522 72.6335 44.0704C75.5246 41.8587 78.0224 39.0693 80.0013 35.8424C81.4414 33.4821 82.5484 30.8885 83.2839 28.1517C84.0282 25.4736 84.29 22.6556 84.0544 19.8595C83.8434 17.2012 82.8077 14.704 81.1256 12.7983C80.3094 11.8515 79.3243 11.1061 78.2343 10.6107C77.1444 10.1152 75.9741 9.88094 74.7996 9.923C72.4426 10.2678 70.2889 11.579 68.7582 13.6012C67.0616 15.5837 65.8507 18.02 65.2411 20.6777C64.6541 23.3209 64.5522 26.0714 64.9414 28.7645C65.3178 31.4711 66.0899 34.0925 67.2268 36.5242C68.3527 38.971 69.8407 41.1899 71.6278 43.087" fill="#2654F7"/>
</svg>
