<svg width="150" height="88" viewBox="0 0 150 88" fill="none" xmlns="http://www.w3.org/2000/svg">
<rect width="150" height="88" fill="#F5F5F5"/>
<g id="Desktop - 2" clip-path="url(#clip0_0_1)">
<rect width="1440" height="4982" transform="translate(-1170 -2613)" fill="#F9FAFC"/>
<g id="Why we are helping 2">
<path id="Vector" opacity="0.3" d="M5.52596 6.15593C10.7369 4.35208 16.1619 3.2356 21.6622 2.83505C25.1718 2.51053 29.0792 2.30679 33.2456 2.21832C37.7054 2.0991 42.1676 2.28815 46.6002 2.7841C48.9856 3.05976 51.35 3.49132 53.6781 4.07599C56.1023 4.65419 58.4691 5.44843 60.7497 6.44913C63.0984 7.44772 65.3196 8.71992 67.367 10.2392C69.4572 11.7445 71.3316 13.5261 72.9389 15.535L73.1958 15.8746C73.0593 15.9265 72.9046 15.9562 72.7564 16.0029C67.1668 17.795 62.31 21.3448 58.9169 26.1184C57.2221 28.5579 56.0433 31.3146 55.4524 34.2205C54.8314 37.264 55.004 40.4141 55.954 43.3699C56.4073 44.9435 57.1097 46.4348 58.0348 47.7876C59.0604 49.3113 60.4216 50.5817 62.0152 51.5022C63.585 52.3571 65.3189 52.8722 67.1034 53.0139C68.888 53.1556 70.6831 52.9206 72.3713 52.3243C75.4291 51.2426 78.0111 49.1288 79.6683 46.3504C81.2006 43.8147 82.2165 41.0041 82.6578 38.079C83.1167 35.2065 83.1277 32.2813 82.6904 29.4068C82.1364 25.8205 80.9726 22.3554 79.2488 19.1601C80.069 19.0777 80.8937 19.0496 81.7174 19.0762C86.5784 19.1976 91.3498 20.3932 95.6867 22.5765C99.7445 24.585 103.473 27.1937 106.745 30.3141C109.616 33.0243 112.144 36.0738 114.272 39.3948C116.016 42.2587 117.496 45.2737 118.696 48.4031C120.623 53.2794 122.007 58.3522 122.823 63.5305C123.398 66.9996 123.708 70.5075 123.75 74.0241C123.766 76.8466 123.679 78.8916 123.572 80.4775C123.503 81.8547 123.42 82.761 123.386 83.4639L122.846 82.5616C121.305 79.9892 119.868 77.6882 118.609 75.7763C116.086 71.9642 114.307 69.6378 113.833 69.9055C113.359 70.1733 114.312 72.7655 116.229 76.8569C117.182 78.9143 118.375 81.3178 119.752 83.9721L120.274 84.9787C120.493 85.4144 120.751 85.8303 121.042 86.2219C121.234 86.4703 121.446 86.7015 121.678 86.9131C121.972 87.1828 122.302 87.4105 122.659 87.5894C123.395 87.9578 124.23 88.0828 125.042 87.9461C126.066 87.7078 127.036 87.2795 127.9 86.6839L130.015 85.471C141.62 78.5285 150.578 72.2238 149.971 71.3762C149.363 70.5285 139.458 75.454 127.84 82.3913L126.32 83.3196C126.544 82.5979 126.719 81.8623 126.845 81.1177C127.268 78.9055 127.521 76.6648 127.602 74.415C127.775 70.7131 127.605 67.0038 127.094 63.334C126.377 57.835 125.011 52.4402 123.026 47.2611C121.733 43.8476 120.123 40.5621 118.216 37.4473C115.885 33.764 113.1 30.3865 109.925 27.3934C106.28 23.9144 102.119 21.0133 97.5889 18.7912C92.5635 16.2825 87.0353 14.9285 81.4111 14.8288C79.7907 14.7933 78.1705 14.9212 76.5755 15.2107C76.2326 14.7483 75.8896 14.2859 75.519 13.8535C73.6851 11.6277 71.5582 9.65823 69.1958 7.99801C66.9116 6.37918 64.4453 5.03106 61.8469 3.98091C59.3772 2.95579 56.8186 2.15631 54.2029 1.59231C51.7608 1.02909 49.2838 0.627369 46.7879 0.389767C42.2401 -0.0272747 37.6671 -0.109789 33.1061 0.142904C28.8598 0.345998 24.9441 0.672768 21.3589 1.12322C15.7741 1.72991 10.3087 3.15436 5.13965 5.35043C3.77716 5.95191 2.46294 6.65664 1.2086 7.45841C0.372085 8.02938 -0.0258752 8.31686 0.00130261 8.41344C0.0284805 8.51001 1.94346 7.48983 5.54951 6.16641L5.52596 6.15593ZM74.4452 20.1616C74.861 20.0229 75.2897 19.9181 75.7185 19.8132C77.4203 22.887 78.5372 26.2479 79.0131 29.7271C79.3546 32.2686 79.3037 34.8478 78.8622 37.3752C78.4522 39.8594 77.5535 42.2392 76.2178 44.3781C74.9595 46.4175 73.0268 47.9571 70.7527 48.7317C69.6404 49.1254 68.4576 49.2814 67.2814 49.1897C66.1052 49.098 64.962 48.7606 63.9263 48.1994C61.9523 46.8642 60.5493 44.8445 59.9907 42.5338C59.2673 40.1804 59.1618 37.6808 59.6843 35.2734C60.2213 32.8879 61.2362 30.634 62.6681 28.6468C64.0941 26.643 65.8404 24.8852 67.8374 23.4435C69.8307 21.9848 72.0568 20.8717 74.4216 20.1511" fill="#215A4D"/>
</g>
</g>
<defs>
<clipPath id="clip0_0_1">
<rect width="1440" height="4982" fill="white" transform="translate(-1170 -2613)"/>
</clipPath>
</defs>
</svg>
